<svg width="32" height="32" viewBox="0 0 32 32" fill="none" xmlns="http://www.w3.org/2000/svg">
<path d="M25.5328 0H6.46319C2.89163 0 0 2.89162 0 6.46319V25.5368C0 29.1044 2.89163 31.996 6.46319 31.996H25.5368C29.1044 31.996 32 29.1044 32 25.5328V6.46319C31.996 2.89162 29.1044 0 25.5328 0Z" fill="url(#paint0_linear_1_717)"/>
<path d="M15.8619 7.35108L16.5099 6.2312C16.9098 5.53126 17.8017 5.29533 18.5016 5.69526C19.2016 6.0952 19.4375 6.98708 19.0376 7.68701L12.7943 18.4937H17.3097C18.7736 18.4937 19.5934 20.2135 18.9576 21.4053H5.71924C4.91137 21.4053 4.26343 20.7574 4.26343 19.9495C4.26343 19.1416 4.91137 18.4937 5.71924 18.4937H9.4308L14.1822 10.2587L12.6984 7.68301C12.2985 6.98308 12.5344 6.0992 13.2344 5.69126C13.9343 5.29133 14.8182 5.52726 15.2261 6.2272L15.8619 7.35108Z" fill="white"/>
<path d="M10.2466 22.9051L8.84682 25.3328C8.44688 26.0328 7.55501 26.2687 6.85507 25.8688C6.15513 25.4688 5.91919 24.5769 6.31913 23.877L7.35901 22.0773C8.53482 21.7133 9.49069 21.9933 10.2466 22.9051Z" fill="white"/>
<path d="M22.3011 18.5017H26.0886C26.8965 18.5017 27.5444 19.1496 27.5444 19.9575C27.5444 20.7654 26.8965 21.4133 26.0886 21.4133H23.9849L25.4047 23.877C25.8046 24.577 25.5687 25.4608 24.8688 25.8688C24.1688 26.2687 23.2849 26.0328 22.877 25.3328C20.4853 21.1853 18.6895 18.0818 17.4977 16.014C16.2778 13.9103 17.1498 11.7985 18.0096 11.0826C18.9656 12.7225 20.3934 15.1981 22.3011 18.5017Z" fill="white"/>
<defs>
<linearGradient id="paint0_linear_1_717" x1="16" y1="0" x2="16" y2="31.996" gradientUnits="userSpaceOnUse">
<stop stop-color="#00BFFC"/>
<stop offset="1" stop-color="#0073F6"/>
</linearGradient>
</defs>
</svg>
